<svg width="542.55" height="70.9" viewBox="0 0 542.55 70.9" xmlns="http://www.w3.org/2000/svg"><g id="svgGroup" stroke-linecap="round" fill-rule="evenodd" font-size="9pt" stroke="#000" stroke-width="0.25mm" fill="#000000" style="stroke:#000;stroke-width:0.25mm;fill:#000000"><path d="M 221.8 63.6 Q 221.1 63.7 220.4 63.7 L 219 63.7 A 31.963 31.963 0 0 1 214.577 63.412 Q 211.144 62.931 208.55 61.65 A 17.831 17.831 0 0 1 205.321 59.627 A 13.177 13.177 0 0 1 202.35 56.35 A 13.146 13.146 0 0 1 200.553 51.988 A 12.226 12.226 0 0 1 200.3 49.5 A 13.954 13.954 0 0 1 201.775 43.339 A 18.718 18.718 0 0 1 203.35 40.7 A 17.092 17.092 0 0 1 208.767 35.825 A 22.9 22.9 0 0 1 212.2 34.2 A 27.482 27.482 0 0 1 215.946 33.054 A 22.272 22.272 0 0 1 218.75 32.6 A 85.416 85.416 0 0 1 222.151 32.342 A 67.298 67.298 0 0 1 224.6 32.25 A 72.713 72.713 0 0 0 226.424 32.195 Q 227.947 32.128 229.1 32 Q 226.7 29.9 224.2 26.85 Q 221.7 23.8 220 20.2 A 18.206 18.206 0 0 1 218.649 16.292 A 15 15 0 0 1 218.3 13.1 Q 218.3 11.5 218.7 10 A 7.878 7.878 0 0 1 220.038 7.281 A 8.951 8.951 0 0 1 220.1 7.2 A 6.443 6.443 0 0 1 221.354 5.933 Q 221.98 5.446 222.783 5.022 A 13.08 13.08 0 0 1 223.55 4.65 A 24.177 24.177 0 0 1 226.934 3.442 A 29.224 29.224 0 0 1 228.75 3 Q 231.6 2.4 234 2.4 A 13.456 13.456 0 0 1 239.1 3.429 A 16.144 16.144 0 0 1 240.15 3.9 Q 243.2 5.4 245.1 7.7 Q 245.9 6.7 246.9 5.9 A 4.506 4.506 0 0 1 247.851 5.308 A 3.541 3.541 0 0 1 249 5 A 0.746 0.746 0 0 1 249.145 4.947 Q 249.325 4.9 249.6 4.9 A 3.05 3.05 0 0 1 250.209 4.958 A 2.175 2.175 0 0 1 250.95 5.25 A 1.326 1.326 0 0 1 251.263 5.52 A 1.032 1.032 0 0 1 251.5 6.2 A 0.94 0.94 0 0 1 251.378 6.651 Q 251.297 6.801 251.161 6.951 A 2.543 2.543 0 0 1 250.9 7.2 A 2.86 2.86 0 0 1 250.587 7.585 Q 250.23 7.958 249.647 8.366 A 10.716 10.716 0 0 1 249.45 8.5 Q 248.4 9.2 247.3 10.3 Q 245.9 11.6 244.8 13.25 A 6.975 6.975 0 0 0 244.029 14.756 A 5.416 5.416 0 0 0 243.7 16.6 A 3.318 3.318 0 0 0 244.184 18.316 A 4.077 4.077 0 0 0 244.3 18.5 Q 244.383 18.583 244.397 18.734 A 0.703 0.703 0 0 1 244.4 18.8 A 0.589 0.589 0 0 1 244.364 19.016 Q 244.263 19.273 243.883 19.297 A 1.292 1.292 0 0 1 243.8 19.3 Q 243.3 19.3 242.8 18.8 Q 242.336 18.15 242.303 16.122 A 19.614 19.614 0 0 1 242.3 15.8 A 14.665 14.665 0 0 1 242.439 13.828 A 17.619 17.619 0 0 1 242.6 12.85 Q 242.9 11.3 243.6 10 A 0.602 0.602 0 0 0 243.724 9.818 A 0.739 0.739 0 0 0 243.75 9.75 A 0.681 0.681 0 0 1 243.822 9.597 A 0.578 0.578 0 0 1 243.9 9.5 Q 242.519 7.946 240.206 6.616 A 23.009 23.009 0 0 0 239.45 6.2 A 12.867 12.867 0 0 0 235.46 4.846 A 11.849 11.849 0 0 0 233.6 4.7 Q 232.5 4.7 231.4 5 A 8.764 8.764 0 0 0 229.395 5.653 A 5.69 5.69 0 0 0 226.7 8.2 A 11.513 11.513 0 0 0 225.503 12.155 A 14.429 14.429 0 0 0 225.4 13.9 A 22.192 22.192 0 0 0 225.766 17.835 A 27.251 27.251 0 0 0 226.25 20 A 34.849 34.849 0 0 0 227.631 24.164 A 30.078 30.078 0 0 0 228.4 25.9 Q 229.395 27.967 230.391 29.448 A 17.156 17.156 0 0 0 231 30.3 Q 232.2 31.9 232.2 32.6 Q 232.2 33.399 230.405 33.699 A 8.18 8.18 0 0 1 230.4 33.7 Q 225.8 34.2 221.45 35.8 A 110.958 110.958 0 0 0 218.902 36.771 Q 216.288 37.806 214.5 38.7 A 22.832 22.832 0 0 0 211.142 40.734 Q 209.34 42.064 208.093 43.637 A 13.433 13.433 0 0 0 207.6 44.3 Q 205.3 47.6 205.3 50.8 A 9.13 9.13 0 0 0 207.619 56.878 A 13.318 13.318 0 0 0 209.1 58.35 A 12.449 12.449 0 0 0 213.532 60.736 Q 215.385 61.316 217.623 61.507 A 26.858 26.858 0 0 0 219.9 61.6 L 221.3 61.6 Q 222 61.6 222.7 61.5 Q 228.8 60.9 234.35 58.6 Q 239.9 56.3 244.2 51.95 Q 248.5 47.6 250.5 40.8 Q 251 39.4 251.15 37.9 A 30.904 30.904 0 0 0 251.275 36.189 A 24.729 24.729 0 0 0 251.3 35.1 Q 251.3 33.7 251.15 32.6 Q 251 31.5 250.7 31 A 144.671 144.671 0 0 1 244.847 34.247 A 157.452 157.452 0 0 1 244.65 34.35 Q 241.5 36 238.9 37.7 A 10.732 10.732 0 0 0 238.037 38.257 Q 237.12 38.906 235.915 39.964 A 50.169 50.169 0 0 0 235.15 40.65 Q 232.8 42.8 231 45.3 A 12.534 12.534 0 0 0 230.051 46.823 Q 229.2 48.456 229.2 49.9 A 3.013 3.013 0 0 0 229.455 51.155 Q 229.735 51.774 230.321 52.239 A 3.676 3.676 0 0 0 230.4 52.3 Q 231.2 52.9 231.2 53.5 A 0.249 0.249 0 0 1 231.052 53.738 Q 230.928 53.8 230.7 53.8 A 1.703 1.703 0 0 1 230.088 53.683 A 2.091 2.091 0 0 1 229.9 53.6 Q 228.732 53.241 228.089 51.832 A 5.697 5.697 0 0 1 227.95 51.5 A 9.602 9.602 0 0 1 227.424 49.429 A 12.878 12.878 0 0 1 227.3 47.6 A 13.639 13.639 0 0 1 227.619 44.589 A 10.926 10.926 0 0 1 228.5 42.1 Q 229.6 40 231.65 38.45 A 40.68 40.68 0 0 1 233.606 37.065 Q 234.628 36.383 235.801 35.675 A 71.464 71.464 0 0 1 236.6 35.2 A 113.765 113.765 0 0 1 242.281 32.106 A 130.228 130.228 0 0 1 244.3 31.1 Q 248.4 29.1 252 27.25 A 46.782 46.782 0 0 0 254.517 25.863 Q 256.463 24.706 257.9 23.55 A 9.259 9.259 0 0 0 258.96 22.564 Q 260.2 21.195 260.2 19.8 L 260.2 19.2 Q 260.2 18.9 260 18.6 A 0.319 0.319 0 0 0 259.995 18.544 Q 259.99 18.513 259.978 18.489 A 0.148 0.148 0 0 0 259.95 18.45 Q 259.909 18.409 259.902 18.333 A 0.352 0.352 0 0 1 259.9 18.3 Q 259.9 17.918 260.173 17.901 A 0.421 0.421 0 0 1 260.2 17.9 A 0.753 0.753 0 0 1 260.654 18.059 Q 260.889 18.232 261.097 18.595 A 2.915 2.915 0 0 1 261.1 18.6 Q 261.5 19.5 261.5 20.6 Q 261.5 23.013 259.344 25.186 A 11.939 11.939 0 0 1 258.8 25.7 Q 256.302 27.921 252.69 30.056 A 56.458 56.458 0 0 1 252.1 30.4 A 9.824 9.824 0 0 1 252.807 31.277 Q 253.606 32.381 254.5 34.1 A 11.444 11.444 0 0 1 255.646 37.422 A 10.329 10.329 0 0 1 255.8 39.2 L 255.8 39.95 A 2.785 2.785 0 0 1 255.768 40.36 A 3.572 3.572 0 0 1 255.7 40.7 A 21.259 21.259 0 0 1 253.413 47.38 A 19.371 19.371 0 0 1 251.15 50.65 Q 247.6 54.8 242.6 57.55 Q 237.6 60.3 232.15 61.75 Q 226.7 63.2 221.8 63.6 Z M 93.4 61.7 Q 92.6 61.7 93 61 A 35.232 35.232 0 0 1 93.098 60.712 Q 93.359 59.95 94.05 58 A 4130.003 4130.003 0 0 0 94.737 56.059 Q 95.043 55.192 95.384 54.227 A 8133.234 8133.234 0 0 0 96.1 52.2 Q 97.3 48.8 98.6 45.25 A 351.723 351.723 0 0 1 99.775 42.087 Q 100.336 40.6 100.853 39.275 A 210.812 210.812 0 0 1 101 38.9 Q 100.464 39.589 99.489 40.747 A 162.312 162.312 0 0 1 98.85 41.5 Q 97.4 43.2 95.8 45.1 A 62.911 62.911 0 0 1 94.344 46.771 Q 93.544 47.656 92.8 48.4 A 3.984 3.984 0 0 1 92.695 48.502 Q 92.54 48.645 92.455 48.685 A 0.138 0.138 0 0 1 92.401 48.7 Q 92.134 48.7 92.104 48.227 A 2.02 2.02 0 0 1 92.1 48.1 Q 92.1 46.9 92.7 45.9 Q 94.9 43.1 96.95 40.65 Q 99 38.2 100.7 36 Q 100.029 35.597 99.808 35.059 A 1.459 1.459 0 0 1 99.7 34.5 A 2.015 2.015 0 0 1 99.769 33.946 Q 99.947 33.325 100.582 33.16 A 2.063 2.063 0 0 1 101.1 33.1 A 2.902 2.902 0 0 1 101.414 33.116 Q 101.784 33.156 102 33.3 A 0.451 0.451 0 0 0 102.061 33.352 Q 102.13 33.4 102.2 33.4 Q 102.279 33.4 102.358 33.525 A 0.861 0.861 0 0 1 102.4 33.6 A 19.935 19.935 0 0 0 102.859 32.93 Q 103.073 32.604 103.249 32.302 A 7.643 7.643 0 0 0 103.25 32.3 Q 103.6 31.7 103.9 31 A 32.817 32.817 0 0 1 104.134 30.487 Q 104.485 29.733 105.129 28.412 A 363.541 363.541 0 0 1 105.55 27.55 A 121.023 121.023 0 0 1 106.579 25.504 Q 107.046 24.596 107.576 23.595 A 234.034 234.034 0 0 1 108.7 21.5 A 97.48 97.48 0 0 1 111.29 17.027 A 116.224 116.224 0 0 1 113.05 14.25 Q 115.5 10.5 118.35 7.25 A 33.127 33.127 0 0 1 121.435 4.15 A 25.632 25.632 0 0 1 124.25 2 A 12.749 12.749 0 0 1 127.24 0.532 A 10.336 10.336 0 0 1 130.5 0 Q 130.9 0 131.3 0.05 Q 131.7 0.1 132.1 0.2 Q 134.6 0.7 135.6 1.95 A 4.553 4.553 0 0 1 136.599 4.768 A 5.692 5.692 0 0 1 136.6 4.9 A 7.276 7.276 0 0 1 136.442 6.375 A 9.471 9.471 0 0 1 136.15 7.45 A 12.569 12.569 0 0 1 135.095 9.774 A 14.127 14.127 0 0 1 134.9 10.1 A 34.039 34.039 0 0 1 132.324 13.943 A 44.981 44.981 0 0 1 129.6 17.15 Q 126.3 20.7 122.25 24.15 Q 118.2 27.6 114.15 30.85 Q 110.1 34.1 106.6 37 A 107.661 107.661 0 0 0 104.955 40.663 Q 104.178 42.487 103.57 44.135 A 56.854 56.854 0 0 0 102.9 46.05 Q 101.6 50 100.9 52.4 A 70.749 70.749 0 0 1 101.519 51.625 Q 102.228 50.748 103.229 49.553 A 301.912 301.912 0 0 1 104.2 48.4 Q 106.4 45.8 109.2 42.8 Q 112 39.8 115 37.05 A 52.926 52.926 0 0 1 117.747 34.692 Q 119.266 33.48 120.7 32.55 Q 123.19 30.936 124.999 30.811 A 4.341 4.341 0 0 1 125.3 30.8 A 3.307 3.307 0 0 1 126.264 30.928 Q 127.324 31.252 127.602 32.39 A 3.852 3.852 0 0 1 127.7 33.3 Q 127.7 35.7 126 38.6 A 319.768 319.768 0 0 0 125.188 39.994 Q 124.034 41.984 123.213 43.476 A 103.059 103.059 0 0 0 123.2 43.5 A 47.141 47.141 0 0 0 121.731 46.856 A 37.853 37.853 0 0 0 120.95 49.05 A 38.875 38.875 0 0 0 120.482 50.613 Q 120.038 52.231 119.9 53.4 A 3.473 3.473 0 0 0 119.821 53.823 A 2.713 2.713 0 0 0 119.8 54.15 L 119.8 54.9 A 8.462 8.462 0 0 0 119.907 56.31 Q 120.332 58.812 122.449 58.897 A 3.763 3.763 0 0 0 122.6 58.9 A 3.457 3.457 0 0 0 123.579 58.741 Q 124.497 58.468 125.676 57.726 A 18.104 18.104 0 0 0 126.6 57.1 A 42.593 42.593 0 0 0 129.444 54.854 A 53.976 53.976 0 0 0 131.7 52.8 A 114.022 114.022 0 0 0 134.774 49.734 A 94.536 94.536 0 0 0 136.45 47.95 Q 138.6 45.6 139.4 44.4 A 1.045 1.045 0 0 1 139.709 44.182 A 0.94 0.94 0 0 1 140.1 44.1 A 0.843 0.843 0 0 1 140.351 44.135 A 0.637 0.637 0 0 1 140.7 44.4 Q 140.881 44.672 140.734 45.108 A 1.789 1.789 0 0 1 140.7 45.2 A 20.148 20.148 0 0 1 139.968 46.346 Q 139.105 47.607 137.789 49.219 A 68.706 68.706 0 0 1 137.6 49.45 A 62.993 62.993 0 0 1 134.207 53.235 A 72.945 72.945 0 0 1 132.9 54.55 Q 130.3 57.1 127.8 58.9 A 9.852 9.852 0 0 1 126.519 59.727 Q 125.603 60.228 124.45 60.65 Q 122.988 61.185 121.551 61.338 A 10.836 10.836 0 0 1 120.4 61.4 A 6.471 6.471 0 0 1 117.441 60.673 A 7.586 7.586 0 0 1 117.3 60.6 Q 115.998 59.905 115.299 58.156 A 8.184 8.184 0 0 1 115.1 57.6 A 3.597 3.597 0 0 1 115.093 57.579 Q 114.8 56.681 114.8 55.1 L 114.8 54.05 A 6.722 6.722 0 0 1 114.854 53.215 A 7.842 7.842 0 0 1 114.9 52.9 A 18.495 18.495 0 0 1 115.706 49.401 A 25.298 25.298 0 0 1 117.05 46.15 A 251.039 251.039 0 0 1 118.712 42.837 Q 119.512 41.272 120.252 39.889 A 152.835 152.835 0 0 1 120.3 39.8 Q 120.606 39.188 120.825 38.692 A 15.606 15.606 0 0 0 120.95 38.4 A 4.461 4.461 0 0 0 121.082 38.045 Q 121.196 37.687 121.2 37.418 A 1.301 1.301 0 0 0 121.2 37.4 A 1.33 1.33 0 0 0 121.169 37.098 Q 121.073 36.686 120.678 36.615 A 1.002 1.002 0 0 0 120.5 36.6 A 1.705 1.705 0 0 0 120.079 36.662 Q 119.407 36.836 118.3 37.5 A 14.429 14.429 0 0 0 117.377 38.109 Q 116.097 39.019 114.3 40.6 A 29.335 29.335 0 0 0 112.363 42.445 Q 111.047 43.811 109.65 45.55 Q 107.2 48.6 104.85 51.8 Q 102.5 55 100.75 57.3 A 42.668 42.668 0 0 1 100.131 58.096 Q 99.16 59.311 98.599 59.783 A 2.091 2.091 0 0 1 98.3 60 A 4.029 4.029 0 0 1 98.019 60.15 Q 97.406 60.453 96 61 Q 94.2 61.7 93.4 61.7 Z M 5.761 70.598 A 10.905 10.905 0 0 0 8.4 70.9 Q 11.9 70.9 16.3 68.8 Q 18.981 67.52 21.811 65.294 A 47.882 47.882 0 0 0 25.5 62.05 Q 30.3 57.4 34.95 49.8 A 73.934 73.934 0 0 0 36.245 47.597 Q 38.168 44.195 39.976 40.206 A 130.768 130.768 0 0 0 43.6 31.3 A 2.399 2.399 0 0 1 44.116 30.527 Q 44.631 29.995 45.55 29.55 A 13.427 13.427 0 0 1 46.762 29.037 A 16.045 16.045 0 0 1 49 28.4 A 23.661 23.661 0 0 1 49.821 28.242 Q 50.485 28.126 51.08 28.066 A 12.137 12.137 0 0 1 52.3 28 A 6.252 6.252 0 0 1 52.399 28.001 Q 53.138 28.013 53.7 28.2 Q 54.302 28.458 54.386 27.829 A 1.73 1.73 0 0 0 54.4 27.6 A 1.225 1.225 0 0 0 54.4 27.567 Q 54.393 27.317 54.284 27.119 A 1.004 1.004 0 0 0 54 26.8 A 0.69 0.69 0 0 0 53.997 26.797 Q 53.689 26.57 52.919 26.516 A 7.522 7.522 0 0 0 52.4 26.5 A 13.945 13.945 0 0 0 51.587 26.525 Q 48.82 26.687 44.4 27.9 A 123.286 123.286 0 0 0 45.143 25.43 A 150.102 150.102 0 0 0 46.35 21 Q 47.3 17.3 48.4 13.6 A 110.803 110.803 0 0 1 48.709 12.577 Q 49.655 9.506 50.6 7.1 Q 52.678 7.278 54.368 7.633 A 19.232 19.232 0 0 1 56.5 8.2 Q 57.4 8.5 58 8.6 A 9.456 9.456 0 0 0 58.364 8.654 Q 58.728 8.7 59 8.7 Q 59.7 8.7 59.7 8.2 A 0.601 0.601 0 0 0 59.693 8.113 Q 59.621 7.617 58.75 6.7 A 14.303 14.303 0 0 0 58.415 6.358 Q 57.691 5.645 57.2 5.4 A 16.464 16.464 0 0 0 56.691 5.156 A 18.688 18.688 0 0 0 55.05 4.5 Q 53.9 4.1 52.6 3.7 A 8.23 8.23 0 0 1 53.174 3.139 Q 54.287 2.159 55.4 2 A 2.626 2.626 0 0 0 55.694 1.93 Q 55.919 1.862 56.081 1.759 A 0.847 0.847 0 0 0 56.5 1 Q 56.5 0.3 55.4 0.3 Q 54 0.3 52.7 1.1 A 9.129 9.129 0 0 0 51.791 1.74 A 10.699 10.699 0 0 0 50.3 3.2 A 32.944 32.944 0 0 0 49.505 3.059 A 36.82 36.82 0 0 0 45.9 2.65 Q 43.6 2.5 41.1 2.5 Q 36.5 2.5 32 3.25 A 36.751 36.751 0 0 0 28.752 3.939 A 29.549 29.549 0 0 0 23.9 5.65 A 18.474 18.474 0 0 0 21.411 7.021 A 14.009 14.009 0 0 0 18.2 9.9 A 8.351 8.351 0 0 0 16.732 12.614 Q 16.283 14.014 16.283 15.648 A 12.401 12.401 0 0 0 16.3 16.3 Q 16.3 19.7 18.7 22.45 A 12.68 12.68 0 0 0 19.168 22.958 A 10.115 10.115 0 0 0 24.4 25.9 Q 25.214 26.144 25.366 25.858 A 0.335 0.335 0 0 0 25.4 25.7 A 0.283 0.283 0 0 0 25.389 25.624 Q 25.331 25.414 24.956 25.158 A 3.852 3.852 0 0 0 24.7 25 A 11.237 11.237 0 0 0 24.539 24.901 Q 23.76 24.432 22.45 23.8 A 8.277 8.277 0 0 1 22.315 23.733 A 8.621 8.621 0 0 1 19.85 21.85 A 4.193 4.193 0 0 1 18.876 20.048 A 5.677 5.677 0 0 1 18.7 18.6 A 7.109 7.109 0 0 1 19.619 15.02 A 8.202 8.202 0 0 1 21.45 12.85 A 14.495 14.495 0 0 1 22.111 12.318 Q 24.716 10.343 28.65 9.15 A 47.648 47.648 0 0 1 30.409 8.653 A 53.338 53.338 0 0 1 38.1 7.25 A 70.976 70.976 0 0 1 39.917 7.074 Q 42.616 6.847 45.164 6.847 A 54.855 54.855 0 0 1 47.6 6.9 A 52.376 52.376 0 0 0 45.995 10.125 A 65.798 65.798 0 0 0 44.1 14.75 A 149.912 149.912 0 0 0 42.963 17.949 A 123.305 123.305 0 0 0 41.35 23 A 176.666 176.666 0 0 1 41.338 23.042 Q 40.554 25.697 39.887 27.654 A 58.236 58.236 0 0 1 39.3 29.3 Q 29.6 32.4 21.25 37.3 A 56.081 56.081 0 0 0 17.671 39.587 A 61.596 61.596 0 0 0 6.1 50.1 Q 2.9 53.8 1.45 57.1 A 22.668 22.668 0 0 0 0.977 58.26 Q 0.516 59.489 0.273 60.614 A 11.29 11.29 0 0 0 0 63 A 10.063 10.063 0 0 0 0.088 64.351 A 7.135 7.135 0 0 0 2.3 68.75 A 7.694 7.694 0 0 0 5.761 70.598 Z M 297.161 70.598 A 10.905 10.905 0 0 0 299.8 70.9 Q 303.3 70.9 307.7 68.8 Q 310.381 67.52 313.211 65.294 A 47.882 47.882 0 0 0 316.9 62.05 Q 321.7 57.4 326.35 49.8 A 73.934 73.934 0 0 0 327.645 47.597 Q 329.568 44.195 331.376 40.206 A 130.768 130.768 0 0 0 335 31.3 A 2.399 2.399 0 0 1 335.516 30.527 Q 336.031 29.995 336.95 29.55 A 13.427 13.427 0 0 1 338.162 29.037 A 16.045 16.045 0 0 1 340.4 28.4 A 23.661 23.661 0 0 1 341.221 28.242 Q 341.885 28.126 342.48 28.066 A 12.137 12.137 0 0 1 343.7 28 A 6.252 6.252 0 0 1 343.799 28.001 Q 344.538 28.013 345.1 28.2 Q 345.702 28.458 345.786 27.829 A 1.73 1.73 0 0 0 345.8 27.6 A 1.225 1.225 0 0 0 345.8 27.567 Q 345.793 27.317 345.684 27.119 A 1.004 1.004 0 0 0 345.4 26.8 A 0.69 0.69 0 0 0 345.397 26.797 Q 345.089 26.57 344.319 26.516 A 7.522 7.522 0 0 0 343.8 26.5 A 13.945 13.945 0 0 0 342.987 26.525 Q 340.22 26.687 335.8 27.9 A 123.286 123.286 0 0 0 336.543 25.43 A 150.102 150.102 0 0 0 337.75 21 Q 338.7 17.3 339.8 13.6 A 110.803 110.803 0 0 1 340.109 12.577 Q 341.055 9.506 342 7.1 Q 344.078 7.278 345.768 7.633 A 19.232 19.232 0 0 1 347.9 8.2 Q 348.8 8.5 349.4 8.6 A 9.456 9.456 0 0 0 349.764 8.654 Q 350.128 8.7 350.4 8.7 Q 351.1 8.7 351.1 8.2 A 0.601 0.601 0 0 0 351.093 8.113 Q 351.021 7.617 350.15 6.7 A 14.303 14.303 0 0 0 349.815 6.358 Q 349.091 5.645 348.6 5.4 A 16.464 16.464 0 0 0 348.091 5.156 A 18.688 18.688 0 0 0 346.45 4.5 Q 345.3 4.1 344 3.7 A 8.23 8.23 0 0 1 344.574 3.139 Q 345.687 2.159 346.8 2 A 2.626 2.626 0 0 0 347.094 1.93 Q 347.319 1.862 347.481 1.759 A 0.847 0.847 0 0 0 347.9 1 Q 347.9 0.3 346.8 0.3 Q 345.4 0.3 344.1 1.1 A 9.129 9.129 0 0 0 343.191 1.74 A 10.699 10.699 0 0 0 341.7 3.2 A 32.944 32.944 0 0 0 340.905 3.059 A 36.82 36.82 0 0 0 337.3 2.65 Q 335 2.5 332.5 2.5 Q 327.9 2.5 323.4 3.25 A 36.751 36.751 0 0 0 320.152 3.939 A 29.549 29.549 0 0 0 315.3 5.65 A 18.474 18.474 0 0 0 312.811 7.021 A 14.009 14.009 0 0 0 309.6 9.9 A 8.351 8.351 0 0 0 308.132 12.614 Q 307.683 14.014 307.683 15.648 A 12.401 12.401 0 0 0 307.7 16.3 Q 307.7 19.7 310.1 22.45 A 12.68 12.68 0 0 0 310.568 22.958 A 10.115 10.115 0 0 0 315.8 25.9 Q 316.614 26.144 316.766 25.858 A 0.335 0.335 0 0 0 316.8 25.7 A 0.283 0.283 0 0 0 316.789 25.624 Q 316.731 25.414 316.356 25.158 A 3.852 3.852 0 0 0 316.1 25 A 11.237 11.237 0 0 0 315.939 24.901 Q 315.16 24.432 313.85 23.8 A 8.277 8.277 0 0 1 313.715 23.733 A 8.621 8.621 0 0 1 311.25 21.85 A 4.193 4.193 0 0 1 310.276 20.048 A 5.677 5.677 0 0 1 310.1 18.6 A 7.109 7.109 0 0 1 311.019 15.02 A 8.202 8.202 0 0 1 312.85 12.85 A 14.495 14.495 0 0 1 313.511 12.318 Q 316.116 10.343 320.05 9.15 A 47.648 47.648 0 0 1 321.809 8.653 A 53.338 53.338 0 0 1 329.5 7.25 A 70.976 70.976 0 0 1 331.317 7.074 Q 334.016 6.847 336.564 6.847 A 54.855 54.855 0 0 1 339 6.9 A 52.376 52.376 0 0 0 337.395 10.125 A 65.798 65.798 0 0 0 335.5 14.75 A 149.912 149.912 0 0 0 334.363 17.949 A 123.305 123.305 0 0 0 332.75 23 A 176.666 176.666 0 0 1 332.738 23.042 Q 331.954 25.697 331.287 27.654 A 58.236 58.236 0 0 1 330.7 29.3 Q 321 32.4 312.65 37.3 A 56.081 56.081 0 0 0 309.071 39.587 A 61.596 61.596 0 0 0 297.5 50.1 Q 294.3 53.8 292.85 57.1 A 22.668 22.668 0 0 0 292.377 58.26 Q 291.916 59.489 291.673 60.614 A 11.29 11.29 0 0 0 291.4 63 A 10.063 10.063 0 0 0 291.488 64.351 A 7.135 7.135 0 0 0 293.7 68.75 A 7.694 7.694 0 0 0 297.161 70.598 Z M 522.1 61.4 Q 520.4 61.4 518.95 60.6 Q 517.732 59.928 517.043 58.269 A 8.343 8.343 0 0 1 516.8 57.6 A 3.597 3.597 0 0 1 516.793 57.579 Q 516.5 56.681 516.5 55.1 A 19.112 19.112 0 0 1 516.645 52.813 Q 516.795 51.571 517.1 50.2 A 48.149 48.149 0 0 1 517.564 48.288 Q 517.963 46.788 518.4 45.6 A 1.274 1.274 0 0 0 518.141 45.752 Q 517.605 46.139 516.55 47.35 Q 515.2 48.9 513.25 51.05 Q 511.3 53.2 508.95 55.35 A 27.481 27.481 0 0 1 505.686 57.926 A 23.533 23.533 0 0 1 504.1 58.9 A 11.787 11.787 0 0 1 501.855 59.881 A 8.881 8.881 0 0 1 499.2 60.3 A 6.173 6.173 0 0 1 497.457 60.036 Q 496.752 59.829 496.012 59.459 A 10.8 10.8 0 0 1 495.8 59.35 A 8.845 8.845 0 0 1 493.823 57.948 A 7.818 7.818 0 0 1 492.9 56.9 A 8.194 8.194 0 0 1 491.908 55.211 A 6.081 6.081 0 0 1 491.4 52.8 A 8.858 8.858 0 0 1 491.953 49.787 Q 492.412 48.514 493.25 47.2 A 26.725 26.725 0 0 1 495.835 43.809 A 34.071 34.071 0 0 1 498.05 41.55 Q 501 38.8 504.35 36.55 A 68.72 68.72 0 0 1 508.024 34.24 A 53.606 53.606 0 0 1 510.75 32.75 Q 513.8 31.2 515.7 30.7 A 13.902 13.902 0 0 1 518.108 30.215 A 18.306 18.306 0 0 1 520.2 30.1 A 12.297 12.297 0 0 1 522.356 30.297 A 14.299 14.299 0 0 1 523.1 30.45 A 7.272 7.272 0 0 1 524.396 30.877 A 5.45 5.45 0 0 1 525.6 31.6 Q 526.4 32 526.9 32.7 A 2.688 2.688 0 0 1 527.309 33.537 A 2.439 2.439 0 0 1 527.4 34.2 A 1.351 1.351 0 0 1 527.386 34.405 Q 527.309 34.905 526.809 34.741 A 1.325 1.325 0 0 1 526.7 34.7 Q 525.9 33.5 524.55 33.15 Q 523.2 32.8 521.8 32.8 Q 518.474 32.8 514.595 34.598 A 28.595 28.595 0 0 0 513 35.4 A 42.604 42.604 0 0 0 504.639 41.282 A 39.904 39.904 0 0 0 504.4 41.5 Q 503.2 42.5 501.15 44.95 Q 499.1 47.4 497.4 50.3 Q 496.153 52.427 495.821 54.285 A 7.463 7.463 0 0 0 495.7 55.6 A 4.095 4.095 0 0 0 495.96 57.073 A 3.804 3.804 0 0 0 496.4 57.9 A 1.314 1.314 0 0 0 497.343 58.569 A 1.956 1.956 0 0 0 497.7 58.6 A 3.63 3.63 0 0 0 498.641 58.461 Q 499.551 58.215 500.736 57.534 A 17.968 17.968 0 0 0 501.45 57.1 A 38.414 38.414 0 0 0 504.141 55.207 A 49.415 49.415 0 0 0 506.3 53.45 Q 508.8 51.3 510.85 49.3 Q 512.738 47.458 513.65 46.549 A 105.882 105.882 0 0 0 513.8 46.4 A 25.395 25.395 0 0 0 514.064 46.131 Q 514.488 45.695 515.251 44.882 A 316.244 316.244 0 0 0 515.75 44.35 Q 517.2 42.8 518.9 41 A 116.971 116.971 0 0 1 520.321 39.521 Q 521.191 38.631 521.95 37.9 A 19.73 19.73 0 0 1 522.423 37.458 Q 523.356 36.617 523.687 36.6 A 0.261 0.261 0 0 1 523.7 36.6 Q 524.196 36.6 525.331 36.846 A 25.735 25.735 0 0 1 525.35 36.85 Q 526.5 37.1 527.3 37.6 Q 528.045 38.065 527.663 38.791 A 1.702 1.702 0 0 1 527.6 38.9 Q 525 42.7 523.45 46.85 A 57.222 57.222 0 0 0 522.677 49.046 Q 521.975 51.187 521.702 52.729 A 13.325 13.325 0 0 0 521.6 53.4 A 3.473 3.473 0 0 0 521.521 53.823 A 2.713 2.713 0 0 0 521.5 54.15 L 521.5 54.9 A 8.462 8.462 0 0 0 521.607 56.31 Q 522.032 58.812 524.149 58.897 A 3.763 3.763 0 0 0 524.3 58.9 A 3.457 3.457 0 0 0 525.279 58.741 Q 526.197 58.468 527.376 57.726 A 18.104 18.104 0 0 0 528.3 57.1 A 42.593 42.593 0 0 0 531.144 54.854 A 53.976 53.976 0 0 0 533.4 52.8 A 114.022 114.022 0 0 0 536.474 49.734 A 94.536 94.536 0 0 0 538.15 47.95 Q 540.3 45.6 541.1 44.4 Q 541.301 44.199 541.501 44.133 A 0.629 0.629 0 0 1 541.7 44.1 Q 542.1 44.1 542.4 44.45 A 0.634 0.634 0 0 1 542.515 44.64 Q 542.609 44.892 542.451 45.207 A 1.399 1.399 0 0 1 542.4 45.3 A 23.692 23.692 0 0 1 541.526 46.62 Q 540.578 47.959 539.2 49.6 A 62.115 62.115 0 0 1 535.846 53.272 A 72.15 72.15 0 0 1 534.5 54.6 A 52.411 52.411 0 0 1 531.607 57.191 A 41.342 41.342 0 0 1 529.4 58.9 A 10.297 10.297 0 0 1 528.027 59.783 Q 527.163 60.252 526.1 60.65 A 11.527 11.527 0 0 1 522.85 61.374 A 10.69 10.69 0 0 1 522.1 61.4 Z M 133.721 61.686 A 1.024 1.024 0 0 0 133.9 61.7 A 3.134 3.134 0 0 0 134.335 61.666 Q 135.184 61.547 136.55 61 Q 138.3 60.3 138.8 60 A 2.091 2.091 0 0 0 139.099 59.783 Q 139.66 59.311 140.631 58.096 A 42.668 42.668 0 0 0 141.25 57.3 Q 143 55 145.35 51.8 Q 147.7 48.6 150.2 45.55 Q 152.7 42.5 154.9 40.6 Q 156.625 39.019 157.833 38.109 A 14.471 14.471 0 0 1 158.7 37.5 Q 160.1 36.6 160.8 36.6 A 1.002 1.002 0 0 1 160.978 36.615 Q 161.373 36.686 161.469 37.098 A 1.33 1.33 0 0 1 161.5 37.4 A 2.48 2.48 0 0 1 161.476 37.732 Q 161.399 38.305 161.069 39.099 A 12.669 12.669 0 0 1 160.7 39.9 Q 159.9 41.3 158.6 44 A 48.411 48.411 0 0 0 158.2 44.852 A 53.975 53.975 0 0 0 156.25 49.75 A 20.812 20.812 0 0 0 155.551 52.261 A 15.813 15.813 0 0 0 155.2 55.5 A 8.072 8.072 0 0 0 155.257 56.475 A 6.249 6.249 0 0 0 156.4 59.45 A 4.032 4.032 0 0 0 157.324 60.362 Q 157.969 60.823 158.842 61.092 A 8.314 8.314 0 0 0 160.4 61.4 A 10.765 10.765 0 0 0 160.889 61.411 Q 162.844 61.411 164.8 60.7 A 24.323 24.323 0 0 0 165.405 60.471 Q 166.292 60.122 167.054 59.737 A 13.932 13.932 0 0 0 168.5 58.9 Q 171 57.1 173.6 54.55 Q 176.2 52 178.35 49.45 Q 179.828 47.697 180.715 46.346 A 14.286 14.286 0 0 0 181.4 45.2 Q 181.489 44.978 181.489 44.795 A 0.598 0.598 0 0 0 181.35 44.4 A 0.815 0.815 0 0 0 181.039 44.165 A 0.864 0.864 0 0 0 180.7 44.1 A 0.629 0.629 0 0 0 180.501 44.133 Q 180.301 44.199 180.1 44.4 A 13.975 13.975 0 0 1 179.628 45.06 Q 179.063 45.808 178.169 46.847 A 79.002 79.002 0 0 1 177.2 47.95 Q 175.1 50.3 172.45 52.8 A 58.694 58.694 0 0 1 170.16 54.854 A 45.644 45.644 0 0 1 167.3 57.1 A 18.104 18.104 0 0 1 166.376 57.726 Q 165.197 58.468 164.279 58.741 A 3.457 3.457 0 0 1 163.3 58.9 A 3.475 3.475 0 0 1 163.129 58.896 Q 161.11 58.797 160.703 56.31 A 8.769 8.769 0 0 1 160.6 54.9 L 160.6 54.15 A 2.713 2.713 0 0 1 160.621 53.823 A 3.473 3.473 0 0 1 160.7 53.4 Q 160.909 51.384 161.891 48.497 A 51.418 51.418 0 0 1 162.9 45.8 Q 164 43.2 165.4 40.85 Q 166.8 38.5 167.7 36 Q 168.2 34.2 168.2 33.3 Q 168.2 31.299 166.779 30.838 A 3.171 3.171 0 0 0 165.8 30.7 A 4.29 4.29 0 0 0 165.554 30.707 Q 163.73 30.812 161.25 32.45 Q 158.6 34.2 155.55 37 Q 152.5 39.8 149.7 42.8 Q 146.9 45.8 144.65 48.4 A 123.134 123.134 0 0 0 143.664 49.553 Q 142.166 51.328 141.4 52.4 A 1541.625 1541.625 0 0 1 141.709 51.526 Q 142.079 50.48 142.581 49.063 A 5967.589 5967.589 0 0 1 143.1 47.6 A 157.442 157.442 0 0 1 143.967 45.219 A 193.382 193.382 0 0 1 145.6 41 A 249.596 249.596 0 0 1 145.785 40.539 Q 146.43 38.936 147.031 37.507 A 148.027 148.027 0 0 1 148.2 34.8 A 16.371 16.371 0 0 0 148.27 34.63 Q 148.584 33.851 148.669 33.394 A 1.643 1.643 0 0 0 148.7 33.1 Q 148.7 31.7 145.7 31.7 A 4.817 4.817 0 0 0 145.311 31.715 Q 144.018 31.82 143.45 32.65 Q 142.8 33.6 142.6 34.75 A 25.716 25.716 0 0 1 142.534 35.114 Q 142.426 35.684 142.319 36.095 A 6.5 6.5 0 0 1 142.2 36.5 A 79.652 79.652 0 0 0 141.9 37.316 Q 141.377 38.756 140.65 40.9 Q 139.7 43.7 138.6 46.9 A 1276.318 1276.318 0 0 1 138.326 47.697 A 1163.447 1163.447 0 0 1 136.45 53.1 A 394.181 394.181 0 0 1 135.818 54.892 Q 135.514 55.746 135.235 56.518 A 208.646 208.646 0 0 1 134.6 58.25 Q 133.975 59.93 133.655 60.663 A 7.295 7.295 0 0 1 133.5 61 A 1.756 1.756 0 0 0 133.492 61.018 Q 133.25 61.602 133.721 61.686 Z M 358.7 49.1 L 358.5 49.1 Q 357.631 49.1 357.343 48.743 A 0.683 0.683 0 0 1 357.2 48.3 Q 357.2 47.823 357.929 47.801 A 2.391 2.391 0 0 1 358 47.8 A 8.916 8.916 0 0 0 359.71 47.47 Q 361.332 47.004 363.371 45.921 A 32.709 32.709 0 0 0 364.05 45.55 A 55.95 55.95 0 0 0 367.887 43.196 A 43.864 43.864 0 0 0 370.5 41.3 Q 371.7 40.3 373.35 38.5 A 8.281 8.281 0 0 0 374.216 37.392 Q 374.626 36.753 374.822 36.128 A 3.762 3.762 0 0 0 375 35 A 2.755 2.755 0 0 0 374.919 34.301 Q 374.685 33.409 373.767 33.24 A 2.578 2.578 0 0 0 373.3 33.2 A 4.45 4.45 0 0 0 372.046 33.387 A 5.567 5.567 0 0 0 371.45 33.6 Q 370.5 34 369.9 34.2 A 22.549 22.549 0 0 0 367.641 35.468 Q 366.435 36.232 365.14 37.227 A 46.729 46.729 0 0 0 363.5 38.55 Q 360 41.5 357.15 45.15 A 25.927 25.927 0 0 0 354.768 48.755 A 19.612 19.612 0 0 0 353.2 52.5 A 7.598 7.598 0 0 0 352.903 53.48 A 6.342 6.342 0 0 0 352.8 54.05 A 11.216 11.216 0 0 0 352.704 55.236 A 10.001 10.001 0 0 0 352.7 55.5 A 5.804 5.804 0 0 0 352.83 56.771 Q 353.008 57.566 353.433 58.139 A 3.097 3.097 0 0 0 354.25 58.9 A 6.157 6.157 0 0 0 356.533 59.776 A 8.348 8.348 0 0 0 358 59.9 A 16.533 16.533 0 0 0 362.525 59.245 A 20.724 20.724 0 0 0 364.8 58.45 A 35.741 35.741 0 0 0 371.187 54.984 A 39.571 39.571 0 0 0 371.6 54.7 Q 374.9 52.4 377.65 49.75 Q 380.4 47.1 382.3 44.6 A 1.389 1.389 0 0 1 382.518 44.366 A 0.918 0.918 0 0 1 383 44.15 A 1.372 1.372 0 0 1 383.072 44.143 Q 383.409 44.119 383.5 44.3 A 0.581 0.581 0 0 1 383.702 44.39 Q 383.9 44.534 383.9 44.85 Q 383.9 45.3 383.7 45.7 A 49.195 49.195 0 0 1 379.363 50.909 A 59.087 59.087 0 0 1 376.95 53.3 Q 373 57 368.25 59.45 Q 363.5 61.9 358.4 61.9 A 16.206 16.206 0 0 1 354.353 61.415 A 12.946 12.946 0 0 1 350.6 59.8 A 6.79 6.79 0 0 1 347.407 54.874 A 9.816 9.816 0 0 1 347.3 53.4 A 9.673 9.673 0 0 1 347.489 51.576 Q 347.662 50.679 347.993 49.67 A 23.752 23.752 0 0 1 348.7 47.8 Q 349.7 45.5 352.4 42.5 Q 355.1 39.5 358.7 36.65 Q 362.3 33.8 366 31.95 Q 369.7 30.1 372.7 30.1 A 6.981 6.981 0 0 1 373.859 30.192 A 5.588 5.588 0 0 1 374.7 30.4 A 5.196 5.196 0 0 1 375.781 30.918 A 3.481 3.481 0 0 1 377.05 32.3 Q 377.7 33.6 377.7 35 Q 377.7 36.3 377.3 37.5 A 9.772 9.772 0 0 1 376.803 38.723 A 7.72 7.72 0 0 1 376.3 39.6 A 14.687 14.687 0 0 1 373.785 42.448 A 20.013 20.013 0 0 1 371.15 44.4 A 34.448 34.448 0 0 1 365.855 47.132 A 30.811 30.811 0 0 1 364.35 47.7 A 40.913 40.913 0 0 1 362.316 48.352 Q 360.352 48.922 358.904 49.08 A 11.524 11.524 0 0 1 358.7 49.1 Z M 382.3 65.4 Q 378.3 65.4 378.3 63.2 Q 378.3 61.962 379.317 60.665 A 8.529 8.529 0 0 1 380 59.9 Q 381.3 58.6 382.9 57.8 A 28.274 28.274 0 0 1 383.458 57.528 Q 384.555 57.01 384.888 57 A 0.428 0.428 0 0 1 384.9 57 Q 385.4 57 385.45 57.4 A 0.573 0.573 0 0 1 385.455 57.471 Q 385.455 57.818 385 58 A 13.033 13.033 0 0 0 384.215 58.513 Q 383.788 58.814 383.322 59.183 A 26.104 26.104 0 0 0 382.75 59.65 Q 381.5 60.7 381.5 61.9 A 1.914 1.914 0 0 0 381.611 62.581 Q 381.96 63.5 383.4 63.5 A 8.803 8.803 0 0 0 386.051 63.073 Q 387.106 62.741 388.2 62.15 A 20.709 20.709 0 0 0 392.715 58.831 A 23.035 23.035 0 0 0 392.85 58.7 A 26.376 26.376 0 0 0 394.909 56.455 A 20.45 20.45 0 0 0 396.35 54.45 A 12.195 12.195 0 0 0 397.047 53.191 Q 397.353 52.545 397.516 51.957 A 4.724 4.724 0 0 0 397.7 50.7 A 3.629 3.629 0 0 0 397.011 48.578 A 4.654 4.654 0 0 0 396.8 48.3 A 4.996 4.996 0 0 0 396.188 47.687 Q 395.495 47.092 394.339 46.4 A 29.721 29.721 0 0 0 393.1 45.7 Q 391.2 44.6 389.45 43.4 A 8.675 8.675 0 0 1 387.672 41.799 A 7.549 7.549 0 0 1 386.8 40.5 A 55.758 55.758 0 0 1 386.137 41.627 Q 385.834 42.129 385.487 42.685 A 112.933 112.933 0 0 1 384.75 43.85 A 41.148 41.148 0 0 1 383.201 46.091 A 51.824 51.824 0 0 1 381.8 47.9 Q 381.399 48.301 380.998 48.434 A 1.258 1.258 0 0 1 380.6 48.5 A 1.052 1.052 0 0 1 380.377 48.479 Q 380.056 48.409 380.008 48.11 A 0.702 0.702 0 0 1 380 48 Q 380 47.722 380.429 47.101 A 7.834 7.834 0 0 1 380.5 47 Q 382.567 44.55 383.814 42.393 A 19.462 19.462 0 0 0 384.5 41.1 A 94.004 94.004 0 0 0 385.1 39.831 Q 385.925 38.05 386.3 37 A 9.54 9.54 0 0 1 387.669 33.281 A 12.886 12.886 0 0 1 389 31.5 A 22.249 22.249 0 0 1 393.108 27.9 A 26.239 26.239 0 0 1 394.6 26.95 A 33.065 33.065 0 0 1 400.919 24.041 A 30.752 30.752 0 0 1 401.35 23.9 Q 404.224 22.984 406.577 22.831 A 14.224 14.224 0 0 1 407.5 22.8 Q 410.2 22.8 412.3 23.8 Q 414.305 24.755 414.396 26.803 A 4.444 4.444 0 0 1 414.4 27 A 4.791 4.791 0 0 1 414.23 28.23 Q 414.055 28.889 413.7 29.6 Q 412.8 31.5 410.7 33 Q 410.617 33.083 410.466 33.097 A 0.703 0.703 0 0 1 410.4 33.1 A 1.33 1.33 0 0 1 410.098 33.069 Q 409.686 32.973 409.615 32.578 A 1.002 1.002 0 0 1 409.6 32.4 Q 409.6 31.9 410.1 31.4 Q 410.9 30.7 411.4 29.7 Q 411.891 28.718 411.9 27.832 A 3.249 3.249 0 0 0 411.9 27.8 A 2.189 2.189 0 0 0 411.777 27.035 Q 411.392 26 409.8 26 A 10.852 10.852 0 0 0 408.211 26.129 Q 406.56 26.375 404.384 27.089 A 38.62 38.62 0 0 0 404.05 27.2 A 30.388 30.388 0 0 0 397.594 30.241 A 28.496 28.496 0 0 0 397.5 30.3 A 30.511 30.511 0 0 0 394.067 32.864 A 24.198 24.198 0 0 0 391.8 35.1 A 14.426 14.426 0 0 0 390.74 36.439 Q 389.689 37.958 389.529 39.245 A 3.681 3.681 0 0 0 389.5 39.7 A 2.954 2.954 0 0 0 390.071 41.443 A 3.682 3.682 0 0 0 390.15 41.55 Q 390.681 42.245 392.048 43.107 A 20.149 20.149 0 0 0 392.7 43.5 Q 393.466 43.959 394.7 44.624 A 111.098 111.098 0 0 0 395.5 45.05 Q 396.948 45.814 398.073 46.482 A 38.162 38.162 0 0 1 398.6 46.8 A 14.898 14.898 0 0 1 400.345 48.029 Q 402.7 49.978 402.7 52.1 A 5.87 5.87 0 0 1 402.144 54.54 Q 401.645 55.639 400.7 56.75 A 19.197 19.197 0 0 1 398.086 59.267 A 25.406 25.406 0 0 1 395.55 61.05 Q 392.4 63 388.9 64.2 Q 385.4 65.4 382.3 65.4 Z M 411.9 65.4 Q 407.9 65.4 407.9 63.2 Q 407.9 61.962 408.917 60.665 A 8.529 8.529 0 0 1 409.6 59.9 Q 410.9 58.6 412.5 57.8 A 28.274 28.274 0 0 1 413.058 57.528 Q 414.155 57.01 414.488 57 A 0.428 0.428 0 0 1 414.5 57 Q 415 57 415.05 57.4 A 0.573 0.573 0 0 1 415.055 57.471 Q 415.055 57.818 414.6 58 A 13.033 13.033 0 0 0 413.815 58.513 Q 413.388 58.814 412.922 59.183 A 26.104 26.104 0 0 0 412.35 59.65 Q 411.1 60.7 411.1 61.9 A 1.914 1.914 0 0 0 411.211 62.581 Q 411.56 63.5 413 63.5 A 8.803 8.803 0 0 0 415.651 63.073 Q 416.706 62.741 417.8 62.15 A 20.709 20.709 0 0 0 422.315 58.831 A 23.035 23.035 0 0 0 422.45 58.7 A 26.376 26.376 0 0 0 424.509 56.455 A 20.45 20.45 0 0 0 425.95 54.45 A 12.195 12.195 0 0 0 426.647 53.191 Q 426.953 52.545 427.116 51.957 A 4.724 4.724 0 0 0 427.3 50.7 A 3.629 3.629 0 0 0 426.611 48.578 A 4.654 4.654 0 0 0 426.4 48.3 A 4.996 4.996 0 0 0 425.788 47.687 Q 425.095 47.092 423.939 46.4 A 29.721 29.721 0 0 0 422.7 45.7 Q 420.8 44.6 419.05 43.4 A 8.675 8.675 0 0 1 417.272 41.799 A 7.549 7.549 0 0 1 416.4 40.5 A 55.758 55.758 0 0 1 415.737 41.627 Q 415.434 42.129 415.087 42.685 A 112.933 112.933 0 0 1 414.35 43.85 A 41.148 41.148 0 0 1 412.801 46.091 A 51.824 51.824 0 0 1 411.4 47.9 Q 410.999 48.301 410.598 48.434 A 1.258 1.258 0 0 1 410.2 48.5 A 1.052 1.052 0 0 1 409.977 48.479 Q 409.656 48.409 409.608 48.11 A 0.702 0.702 0 0 1 409.6 48 Q 409.6 47.722 410.029 47.101 A 7.834 7.834 0 0 1 410.1 47 Q 412.167 44.55 413.414 42.393 A 19.462 19.462 0 0 0 414.1 41.1 A 94.004 94.004 0 0 0 414.7 39.831 Q 415.525 38.05 415.9 37 A 9.54 9.54 0 0 1 417.269 33.281 A 12.886 12.886 0 0 1 418.6 31.5 A 22.249 22.249 0 0 1 422.708 27.9 A 26.239 26.239 0 0 1 424.2 26.95 A 33.065 33.065 0 0 1 430.519 24.041 A 30.752 30.752 0 0 1 430.95 23.9 Q 433.824 22.984 436.177 22.831 A 14.224 14.224 0 0 1 437.1 22.8 Q 439.8 22.8 441.9 23.8 Q 443.905 24.755 443.996 26.803 A 4.444 4.444 0 0 1 444 27 A 4.791 4.791 0 0 1 443.83 28.23 Q 443.655 28.889 443.3 29.6 Q 442.4 31.5 440.3 33 Q 440.217 33.083 440.066 33.097 A 0.703 0.703 0 0 1 440 33.1 A 1.33 1.33 0 0 1 439.698 33.069 Q 439.286 32.973 439.215 32.578 A 1.002 1.002 0 0 1 439.2 32.4 Q 439.2 31.9 439.7 31.4 Q 440.5 30.7 441 29.7 Q 441.491 28.718 441.5 27.832 A 3.249 3.249 0 0 0 441.5 27.8 A 2.189 2.189 0 0 0 441.377 27.035 Q 440.992 26 439.4 26 A 10.852 10.852 0 0 0 437.811 26.129 Q 436.16 26.375 433.984 27.089 A 38.62 38.62 0 0 0 433.65 27.2 A 30.388 30.388 0 0 0 427.194 30.241 A 28.496 28.496 0 0 0 427.1 30.3 A 30.511 30.511 0 0 0 423.667 32.864 A 24.198 24.198 0 0 0 421.4 35.1 A 14.426 14.426 0 0 0 420.34 36.439 Q 419.289 37.958 419.129 39.245 A 3.681 3.681 0 0 0 419.1 39.7 A 2.954 2.954 0 0 0 419.671 41.443 A 3.682 3.682 0 0 0 419.75 41.55 Q 420.281 42.245 421.648 43.107 A 20.149 20.149 0 0 0 422.3 43.5 Q 423.066 43.959 424.3 44.624 A 111.098 111.098 0 0 0 425.1 45.05 Q 426.548 45.814 427.673 46.482 A 38.162 38.162 0 0 1 428.2 46.8 A 14.898 14.898 0 0 1 429.945 48.029 Q 432.3 49.978 432.3 52.1 A 5.87 5.87 0 0 1 431.744 54.54 Q 431.245 55.639 430.3 56.75 A 19.197 19.197 0 0 1 427.686 59.267 A 25.406 25.406 0 0 1 425.15 61.05 Q 422 63 418.5 64.2 Q 415 65.4 411.9 65.4 Z M 65.7 61.5 Q 62.9 61.5 60.8 60.2 A 6.753 6.753 0 0 1 57.792 56.247 Q 57.423 55.059 57.331 53.601 A 15.849 15.849 0 0 1 57.3 52.6 A 16.154 16.154 0 0 1 57.452 50.464 Q 57.593 49.407 57.866 48.235 A 30.39 30.39 0 0 1 58.1 47.3 A 17.337 17.337 0 0 1 58.923 45.026 Q 59.421 43.889 60.116 42.671 A 31.965 31.965 0 0 1 60.6 41.85 A 37.369 37.369 0 0 1 64.812 36.242 A 40.699 40.699 0 0 1 64.85 36.2 Q 67.3 33.5 70.2 31.8 A 13 13 0 0 1 73.009 30.552 A 10.29 10.29 0 0 1 76 30.1 A 8.152 8.152 0 0 1 76.993 30.157 Q 77.519 30.222 77.972 30.359 A 4.846 4.846 0 0 1 78.1 30.4 A 4.355 4.355 0 0 1 80.042 31.721 A 5.257 5.257 0 0 1 80.15 31.85 A 3.754 3.754 0 0 1 80.921 33.576 A 5.19 5.19 0 0 1 81 34.5 A 5.148 5.148 0 0 1 80.965 35.129 Q 80.827 36.241 80.15 36.4 Q 79.412 36.574 79.315 36.144 A 0.654 0.654 0 0 1 79.3 36 Q 79.3 35.8 79.35 35.6 Q 79.39 35.442 79.398 35.346 A 0.541 0.541 0 0 0 79.4 35.3 Q 79.4 34.5 78.95 33.85 Q 78.5 33.2 77.3 33.2 A 3.95 3.95 0 0 0 76.14 33.392 Q 74.911 33.771 73.35 34.9 A 22.886 22.886 0 0 0 71.275 36.608 Q 70.265 37.537 69.237 38.671 A 39.766 39.766 0 0 0 68.55 39.45 Q 66.1 42.3 64.25 45.7 A 23.882 23.882 0 0 0 62.426 49.95 A 20.212 20.212 0 0 0 61.8 52.5 A 11.884 11.884 0 0 0 61.695 53.105 A 9.937 9.937 0 0 0 61.65 53.45 Q 61.6 53.9 61.6 54.4 Q 61.6 56.7 62.65 58.25 A 3.389 3.389 0 0 0 64.805 59.677 A 5.472 5.472 0 0 0 66 59.8 A 7.613 7.613 0 0 0 69.651 58.841 A 10.759 10.759 0 0 0 71.4 57.65 A 24.359 24.359 0 0 0 75.512 53.259 A 27.709 27.709 0 0 0 76.05 52.5 A 46.416 46.416 0 0 0 77.44 50.348 Q 78.071 49.306 78.549 48.365 A 21.419 21.419 0 0 0 79.1 47.2 Q 79.676 45.904 79.993 44.868 A 11.426 11.426 0 0 0 80.2 44.1 A 14.544 14.544 0 0 0 80.377 43.217 Q 80.446 42.801 80.476 42.436 A 6.489 6.489 0 0 0 80.5 41.9 A 7.227 7.227 0 0 0 80.471 41.238 Q 80.441 40.913 80.38 40.629 A 4.106 4.106 0 0 0 80.35 40.5 Q 80.235 40.041 80.091 39.698 A 3.369 3.369 0 0 0 80 39.5 Q 79.844 39.032 79.81 38.746 A 1.235 1.235 0 0 1 79.8 38.6 A 1.545 1.545 0 0 1 80.307 37.421 A 1.981 1.981 0 0 1 80.45 37.3 A 2.611 2.611 0 0 1 81.007 36.967 A 1.986 1.986 0 0 1 81.8 36.8 Q 82.4 36.8 83.1 37.2 Q 83.823 37.381 85.035 37.48 A 25.991 25.991 0 0 0 85.3 37.5 A 39.22 39.22 0 0 0 87.128 37.586 A 47.689 47.689 0 0 0 88.3 37.6 Q 90 37.6 91.75 37.5 Q 93.254 37.414 94.425 37.181 A 12.793 12.793 0 0 0 94.8 37.1 A 0.746 0.746 0 0 1 94.945 37.047 Q 95.125 37 95.4 37 A 1.83 1.83 0 0 1 95.638 37.014 Q 95.893 37.048 96.008 37.162 A 0.322 0.322 0 0 1 96.1 37.4 Q 96.1 37.754 95.553 38.029 A 2.743 2.743 0 0 1 95.4 38.1 A 23.231 23.231 0 0 1 92.893 39.085 Q 91.631 39.493 90.485 39.67 A 11.457 11.457 0 0 1 89.15 39.8 A 177.8 177.8 0 0 1 87.193 39.861 Q 86.422 39.88 85.723 39.89 A 94.839 94.839 0 0 1 84.4 39.9 Q 84.523 41.435 84.08 43.102 A 13.596 13.596 0 0 1 83.3 45.25 Q 82 48.1 80.6 50.3 A 57.27 57.27 0 0 1 78.28 53.464 A 68.474 68.474 0 0 1 76.7 55.4 A 22.411 22.411 0 0 1 72.136 59.528 A 21.044 21.044 0 0 1 71.8 59.75 Q 69.1 61.5 65.7 61.5 Z M 474.8 61.5 Q 473 61.8 471.2 61.8 A 15.195 15.195 0 0 1 467.932 61.467 A 10.71 10.71 0 0 1 463.9 59.7 A 6.816 6.816 0 0 1 461.058 54.689 A 10.01 10.01 0 0 1 461 53.6 Q 461 51.868 461.729 49.615 A 24.998 24.998 0 0 1 462.4 47.8 Q 463.4 45.5 466.1 42.5 Q 468.8 39.5 472.4 36.65 Q 476 33.8 479.7 31.95 Q 483.4 30.1 486.4 30.1 A 6.981 6.981 0 0 1 487.559 30.192 A 5.588 5.588 0 0 1 488.4 30.4 A 6.242 6.242 0 0 1 489.715 31.054 A 5.456 5.456 0 0 1 490.3 31.5 Q 491.039 32.147 491.095 33.391 A 4.629 4.629 0 0 1 491.1 33.6 L 491.1 34.2 Q 491.1 34.42 490.992 34.694 A 2.536 2.536 0 0 1 490.9 34.9 A 0.804 0.804 0 0 1 490.878 35.065 Q 490.802 35.419 490.45 36.2 Q 490 37.2 489.45 37.95 A 2.431 2.431 0 0 1 489.296 38.141 Q 488.903 38.576 488.593 38.376 A 0.567 0.567 0 0 1 488.5 38.3 A 1.004 1.004 0 0 1 488.216 37.981 Q 488.107 37.783 488.1 37.533 A 1.225 1.225 0 0 1 488.1 37.5 Q 488.1 37 488.35 36.35 A 4.479 4.479 0 0 0 488.502 35.884 Q 488.563 35.652 488.586 35.443 A 2.23 2.23 0 0 0 488.6 35.2 A 2.806 2.806 0 0 0 488.261 33.87 A 3.27 3.27 0 0 0 488.25 33.85 Q 487.9 33.2 487.1 33.2 A 5.711 5.711 0 0 0 485.752 33.379 Q 484.443 33.699 482.762 34.591 A 23.545 23.545 0 0 0 482.2 34.9 Q 479.2 36.6 476.05 39.45 Q 472.9 42.3 470.4 45.7 Q 467.9 49.1 466.9 52.5 A 7.598 7.598 0 0 0 466.603 53.48 A 6.342 6.342 0 0 0 466.5 54.05 A 11.216 11.216 0 0 0 466.404 55.236 A 10.001 10.001 0 0 0 466.4 55.5 Q 466.4 57.12 467.186 58.062 A 2.997 2.997 0 0 0 467.85 58.65 A 5.68 5.68 0 0 0 469.913 59.466 A 7.863 7.863 0 0 0 471.4 59.6 Q 473.7 59.6 476.1 58.9 Q 482.9 56.9 487.15 53.4 Q 491.126 50.126 495.146 45.101 A 79.949 79.949 0 0 0 495.7 44.4 A 2.188 2.188 0 0 1 495.843 44.238 Q 496.155 43.918 496.4 44 A 2.608 2.608 0 0 0 496.578 44.053 Q 496.763 44.1 496.9 44.1 A 0.387 0.387 0 0 1 497.139 44.332 Q 497.173 44.41 497.188 44.513 A 1.3 1.3 0 0 1 497.2 44.7 A 1.034 1.034 0 0 1 497.188 44.849 Q 497.166 45.003 497.1 45.2 Q 497 45.5 496.9 45.7 A 59.509 59.509 0 0 1 488.686 54.74 A 54.79 54.79 0 0 1 487.4 55.85 A 25.474 25.474 0 0 1 477.552 60.891 A 31.414 31.414 0 0 1 474.8 61.5 Z M 445.3 61.4 Q 443.5 61.4 442.05 60.6 Q 440.832 59.928 440.143 58.269 A 8.343 8.343 0 0 1 439.9 57.6 Q 439.8 57.3 439.75 57 A 3.407 3.407 0 0 1 439.716 56.718 Q 439.704 56.573 439.701 56.411 A 6.069 6.069 0 0 1 439.7 56.3 A 11.462 11.462 0 0 1 439.806 54.807 Q 439.908 54.038 440.106 53.161 A 28.041 28.041 0 0 1 440.6 51.3 Q 441.5 48.3 442.8 45.5 A 49.639 49.639 0 0 0 442.322 46.149 Q 442.111 46.44 441.88 46.765 A 95.797 95.797 0 0 0 441.4 47.45 Q 440.637 48.547 439.236 50.237 A 87.849 87.849 0 0 1 439.1 50.4 A 1.474 1.474 0 0 1 438.759 50.659 A 1.16 1.16 0 0 1 438.2 50.8 Q 437.5 50.8 437.5 50 A 1.479 1.479 0 0 1 437.591 49.474 A 1.329 1.329 0 0 1 437.9 49 Q 440.5 45.7 442.55 43.1 Q 444.555 40.558 445.555 38.78 A 16.315 16.315 0 0 0 445.6 38.7 A 0.319 0.319 0 0 0 445.595 38.644 Q 445.59 38.613 445.578 38.589 A 0.148 0.148 0 0 0 445.55 38.55 Q 445.509 38.509 445.502 38.433 A 0.352 0.352 0 0 1 445.5 38.4 Q 445.5 38.1 445.8 37.5 Q 446.452 35.545 447.136 34.088 A 19.54 19.54 0 0 1 447.45 33.45 A 6.737 6.737 0 0 1 447.877 32.726 Q 448.39 31.978 448.953 31.715 A 1.524 1.524 0 0 1 449.3 31.6 Q 449.5 31.6 449.7 31.55 Q 449.9 31.5 450.1 31.5 A 4.185 4.185 0 0 1 451.518 31.736 A 3.892 3.892 0 0 1 452.1 32 A 1.897 1.897 0 0 1 452.622 32.413 Q 452.965 32.81 452.997 33.38 A 2.125 2.125 0 0 1 453 33.5 A 3.21 3.21 0 0 1 452.916 34.199 Q 452.766 34.867 452.35 35.7 Q 451.708 36.985 450.724 38.855 A 295.348 295.348 0 0 1 450.7 38.9 Q 448.5 43.5 446.75 47.25 A 33.154 33.154 0 0 0 445.828 49.41 Q 445.033 51.486 444.838 53.041 A 8.661 8.661 0 0 0 444.8 53.4 A 3.473 3.473 0 0 0 444.721 53.823 A 2.713 2.713 0 0 0 444.7 54.15 L 444.7 54.9 A 9.213 9.213 0 0 0 444.791 56.259 Q 445.188 58.9 447.3 58.9 Q 448.678 58.9 450.724 57.602 A 17.991 17.991 0 0 0 451.4 57.15 A 36.109 36.109 0 0 0 454.204 54.962 A 47.099 47.099 0 0 0 456.5 52.85 A 136.374 136.374 0 0 0 459.574 49.741 A 111.425 111.425 0 0 0 461.25 47.95 Q 463.4 45.6 464.2 44.4 Q 464.401 44.199 464.601 44.133 A 0.629 0.629 0 0 1 464.8 44.1 A 0.864 0.864 0 0 1 465.139 44.165 A 0.815 0.815 0 0 1 465.45 44.4 A 0.598 0.598 0 0 1 465.589 44.795 Q 465.589 44.978 465.5 45.2 A 14.286 14.286 0 0 1 464.815 46.346 Q 463.928 47.697 462.45 49.45 A 64.863 64.863 0 0 1 458.983 53.235 A 75.121 75.121 0 0 1 457.65 54.55 A 53.998 53.998 0 0 1 454.877 57.048 A 41.372 41.372 0 0 1 452.5 58.9 A 10.702 10.702 0 0 1 451.088 59.81 Q 450.36 60.207 449.499 60.552 A 18.262 18.262 0 0 1 449.25 60.65 Q 447.3 61.4 445.3 61.4 Z M 10.4 68.1 A 10.37 10.37 0 0 0 14.776 67.095 Q 16.174 66.451 17.565 65.393 A 18.568 18.568 0 0 0 17.75 65.25 Q 21.4 62.4 24.7 57.9 Q 28 53.4 30.8 48.3 A 129.294 129.294 0 0 0 33.843 42.42 A 103.414 103.414 0 0 0 35.6 38.6 Q 37.307 34.674 38.286 32.059 A 60.833 60.833 0 0 0 38.6 31.2 Q 30.4 33.9 23.4 38.4 Q 16.4 42.9 10.9 49.7 A 38.493 38.493 0 0 0 8.882 52.412 Q 7.882 53.895 7.173 55.298 A 20.111 20.111 0 0 0 6.55 56.65 A 22.156 22.156 0 0 0 5.781 58.784 Q 5.454 59.876 5.311 60.852 A 9.996 9.996 0 0 0 5.2 62.3 A 8.418 8.418 0 0 0 5.365 64.02 Q 5.681 65.533 6.6 66.55 A 4.614 4.614 0 0 0 9.466 68.036 A 6.58 6.58 0 0 0 10.4 68.1 Z M 301.8 68.1 A 10.37 10.37 0 0 0 306.176 67.095 Q 307.574 66.451 308.965 65.393 A 18.568 18.568 0 0 0 309.15 65.25 Q 312.8 62.4 316.1 57.9 Q 319.4 53.4 322.2 48.3 A 129.294 129.294 0 0 0 325.243 42.42 A 103.414 103.414 0 0 0 327 38.6 Q 328.707 34.674 329.686 32.059 A 60.833 60.833 0 0 0 330 31.2 Q 321.8 33.9 314.8 38.4 Q 307.8 42.9 302.3 49.7 A 38.493 38.493 0 0 0 300.282 52.412 Q 299.282 53.895 298.573 55.298 A 20.111 20.111 0 0 0 297.95 56.65 A 22.156 22.156 0 0 0 297.181 58.784 Q 296.854 59.876 296.711 60.852 A 9.996 9.996 0 0 0 296.6 62.3 A 8.418 8.418 0 0 0 296.765 64.02 Q 297.081 65.533 298 66.55 A 4.614 4.614 0 0 0 300.866 68.036 A 6.58 6.58 0 0 0 301.8 68.1 Z M 108.5 32.5 A 76.455 76.455 0 0 0 112.134 29.879 Q 113.951 28.491 115.892 26.862 A 129.652 129.652 0 0 0 117.2 25.75 Q 121.9 21.7 126.05 17.05 Q 130.2 12.4 132.4 8.2 A 15.703 15.703 0 0 0 132.98 6.97 Q 133.522 5.667 133.59 4.679 A 4.037 4.037 0 0 0 133.6 4.4 A 2.805 2.805 0 0 0 133.533 3.758 Q 133.284 2.7 132.1 2.7 Q 131.4 2.7 130.5 3.05 Q 129.888 3.288 129.138 3.78 A 14.344 14.344 0 0 0 128.4 4.3 Q 121.7 9.5 117.1 16.65 Q 112.5 23.8 108.5 32.5 Z M 454.108 25.447 A 14.908 14.908 0 0 0 456.2 25.6 A 0.897 0.897 0 0 0 456.555 25.52 Q 456.882 25.38 457.26 24.99 A 5.508 5.508 0 0 0 457.6 24.6 Q 458.4 23.6 459 22.4 A 14.961 14.961 0 0 0 459.084 22.23 Q 459.6 21.164 459.6 20.7 A 4.46 4.46 0 0 1 459.627 20.215 Q 459.673 19.797 459.795 19.333 A 8.958 8.958 0 0 1 460.1 18.4 Q 460.6 17.1 460.1 17.1 A 0.3 0.3 0 0 0 460.051 17.104 Q 459.694 17.163 458.592 18.024 A 29.596 29.596 0 0 0 458 18.5 A 2.824 2.824 0 0 0 457.937 18.544 Q 457.645 18.75 456.753 19.452 A 181.793 181.793 0 0 0 456.25 19.85 A 295.01 295.01 0 0 0 455.889 20.137 A 269.479 269.479 0 0 0 453.45 22.1 A 23.289 23.289 0 0 0 453.236 22.277 Q 452.352 23.015 452.156 23.345 A 0.326 0.326 0 0 0 452.1 23.5 A 2.846 2.846 0 0 0 452.1 23.502 Q 452.101 24.65 452.823 25.103 A 1.89 1.89 0 0 0 453.5 25.35 A 17.134 17.134 0 0 0 454.108 25.447 Z" vector-effect="non-scaling-stroke"/></g></svg>